<svg xmlns="http://www.w3.org/2000/svg" xmlns:xlink="http://www.w3.org/1999/xlink" width="500" zoomAndPan="magnify" viewBox="0 0 375 374.999991" height="500" preserveAspectRatio="xMidYMid meet" version="1.0"><path fill="#c38edc" d="M 374.941406 187.503906 C 374.941406 190.574219 374.863281 193.640625 374.714844 196.707031 C 374.5625 199.773438 374.339844 202.832031 374.039062 205.886719 C 373.738281 208.9375 373.363281 211.984375 372.910156 215.019531 C 372.460938 218.054688 371.9375 221.078125 371.339844 224.089844 C 370.738281 227.097656 370.066406 230.089844 369.320312 233.066406 C 368.578125 236.042969 367.757812 239 366.867188 241.9375 C 365.976562 244.875 365.015625 247.789062 363.980469 250.675781 C 362.949219 253.566406 361.84375 256.429688 360.667969 259.265625 C 359.496094 262.097656 358.253906 264.902344 356.941406 267.679688 C 355.628906 270.453125 354.25 273.191406 352.804688 275.898438 C 351.355469 278.605469 349.84375 281.273438 348.269531 283.90625 C 346.691406 286.539062 345.050781 289.132812 343.34375 291.683594 C 341.640625 294.234375 339.875 296.742188 338.046875 299.207031 C 336.21875 301.671875 334.332031 304.089844 332.386719 306.464844 C 330.4375 308.835938 328.433594 311.160156 326.375 313.433594 C 324.3125 315.707031 322.199219 317.929688 320.03125 320.097656 C 317.859375 322.269531 315.636719 324.382812 313.363281 326.445312 C 311.089844 328.503906 308.769531 330.507812 306.398438 332.457031 C 304.027344 334.402344 301.605469 336.289062 299.144531 338.117188 C 296.679688 339.945312 294.171875 341.714844 291.621094 343.417969 C 289.070312 345.121094 286.476562 346.765625 283.84375 348.34375 C 281.214844 349.917969 278.542969 351.433594 275.839844 352.878906 C 273.132812 354.324219 270.394531 355.703125 267.621094 357.015625 C 264.847656 358.328125 262.042969 359.570312 259.207031 360.746094 C 256.371094 361.921875 253.511719 363.023438 250.621094 364.058594 C 247.734375 365.09375 244.820312 366.054688 241.882812 366.945312 C 238.949219 367.835938 235.992188 368.65625 233.015625 369.398438 C 230.039062 370.144531 227.046875 370.816406 224.039062 371.417969 C 221.027344 372.015625 218.007812 372.539062 214.972656 372.992188 C 211.9375 373.441406 208.890625 373.816406 205.839844 374.117188 C 202.785156 374.417969 199.726562 374.644531 196.660156 374.792969 C 193.597656 374.945312 190.53125 375.019531 187.460938 375.019531 C 184.394531 375.019531 181.328125 374.945312 178.261719 374.792969 C 175.199219 374.644531 172.140625 374.417969 169.085938 374.117188 C 166.03125 373.816406 162.988281 373.441406 159.953125 372.992188 C 156.917969 372.539062 153.894531 372.015625 150.886719 371.417969 C 147.878906 370.816406 144.886719 370.144531 141.910156 369.398438 C 138.933594 368.65625 135.976562 367.835938 133.039062 366.945312 C 130.105469 366.054688 127.191406 365.09375 124.304688 364.058594 C 121.414062 363.023438 118.550781 361.921875 115.71875 360.746094 C 112.882812 359.570312 110.078125 358.328125 107.304688 357.015625 C 104.53125 355.703125 101.792969 354.324219 99.085938 352.878906 C 96.378906 351.433594 93.710938 349.917969 91.078125 348.34375 C 88.449219 346.765625 85.855469 345.121094 83.304688 343.417969 C 80.753906 341.714844 78.246094 339.945312 75.78125 338.117188 C 73.316406 336.289062 70.898438 334.402344 68.527344 332.457031 C 66.15625 330.507812 63.832031 328.503906 61.558594 326.445312 C 59.285156 324.382812 57.066406 322.269531 54.894531 320.097656 C 52.726562 317.929688 50.609375 315.707031 48.550781 313.433594 C 46.488281 311.160156 44.484375 308.835938 42.539062 306.464844 C 40.59375 304.089844 38.707031 301.671875 36.878906 299.207031 C 35.050781 296.742188 33.285156 294.234375 31.578125 291.683594 C 29.875 289.132812 28.234375 286.539062 26.65625 283.90625 C 25.078125 281.273438 23.566406 278.605469 22.121094 275.898438 C 20.675781 273.191406 19.296875 270.453125 17.984375 267.679688 C 16.671875 264.902344 15.429688 262.097656 14.253906 259.265625 C 13.082031 256.429688 11.976562 253.566406 10.941406 250.675781 C 9.910156 247.789062 8.949219 244.875 8.058594 241.9375 C 7.167969 239 6.347656 236.042969 5.601562 233.066406 C 4.855469 230.089844 4.183594 227.097656 3.585938 224.089844 C 2.988281 221.078125 2.464844 218.054688 2.011719 215.019531 C 1.5625 211.984375 1.1875 208.9375 0.886719 205.886719 C 0.585938 202.832031 0.359375 199.773438 0.210938 196.707031 C 0.0585938 193.640625 -0.015625 190.574219 -0.015625 187.503906 C -0.015625 184.4375 0.0585938 181.371094 0.210938 178.304688 C 0.359375 175.238281 0.585938 172.179688 0.886719 169.125 C 1.1875 166.070312 1.5625 163.027344 2.011719 159.992188 C 2.464844 156.957031 2.988281 153.933594 3.585938 150.921875 C 4.183594 147.914062 4.855469 144.921875 5.601562 141.945312 C 6.347656 138.964844 7.167969 136.011719 8.058594 133.074219 C 8.949219 130.136719 9.910156 127.222656 10.941406 124.335938 C 11.976562 121.445312 13.082031 118.582031 14.253906 115.746094 C 15.429688 112.910156 16.671875 110.105469 17.984375 107.332031 C 19.296875 104.558594 20.675781 101.820312 22.121094 99.113281 C 23.566406 96.40625 25.078125 93.738281 26.65625 91.105469 C 28.234375 88.472656 29.875 85.878906 31.578125 83.328125 C 33.285156 80.777344 35.050781 78.269531 36.878906 75.804688 C 38.707031 73.339844 40.59375 70.921875 42.539062 68.546875 C 44.484375 66.175781 46.488281 63.851562 48.550781 61.578125 C 50.609375 59.304688 52.726562 57.082031 54.894531 54.914062 C 57.066406 52.742188 59.285156 50.628906 61.558594 48.566406 C 63.832031 46.507812 66.15625 44.503906 68.527344 42.554688 C 70.898438 40.609375 73.316406 38.722656 75.78125 36.894531 C 78.246094 35.066406 80.753906 33.296875 83.304688 31.59375 C 85.855469 29.886719 88.449219 28.246094 91.078125 26.667969 C 93.710938 25.089844 96.378906 23.578125 99.085938 22.132812 C 101.792969 20.6875 104.53125 19.308594 107.304688 17.996094 C 110.078125 16.683594 112.882812 15.441406 115.71875 14.265625 C 118.550781 13.089844 121.414062 11.988281 124.304688 10.953125 C 127.191406 9.917969 130.105469 8.957031 133.039062 8.066406 C 135.976562 7.175781 138.933594 6.355469 141.910156 5.609375 C 144.886719 4.867188 147.878906 4.191406 150.886719 3.59375 C 153.894531 2.996094 156.917969 2.472656 159.953125 2.019531 C 162.988281 1.570312 166.03125 1.195312 169.085938 0.894531 C 172.140625 0.59375 175.199219 0.367188 178.261719 0.21875 C 181.328125 0.0664062 184.394531 -0.0078125 187.460938 -0.0078125 C 190.53125 -0.0078125 193.597656 0.0664062 196.660156 0.21875 C 199.726562 0.367188 202.785156 0.59375 205.839844 0.894531 C 208.890625 1.195312 211.9375 1.570312 214.972656 2.019531 C 218.007812 2.472656 221.027344 2.996094 224.039062 3.59375 C 227.046875 4.191406 230.039062 4.867188 233.015625 5.609375 C 235.992188 6.355469 238.949219 7.175781 241.882812 8.066406 C 244.820312 8.957031 247.734375 9.917969 250.621094 10.953125 C 253.511719 11.988281 256.371094 13.089844 259.207031 14.265625 C 262.042969 15.441406 264.847656 16.683594 267.621094 17.996094 C 270.394531 19.308594 273.132812 20.6875 275.839844 22.132812 C 278.542969 23.578125 281.214844 25.089844 283.84375 26.667969 C 286.476562 28.246094 289.070312 29.886719 291.621094 31.59375 C 294.171875 33.296875 296.679688 35.066406 299.144531 36.894531 C 301.605469 38.722656 304.027344 40.609375 306.398438 42.554688 C 308.769531 44.503906 311.089844 46.507812 313.363281 48.566406 C 315.636719 50.628906 317.859375 52.742188 320.03125 54.914062 C 322.199219 57.082031 324.3125 59.304688 326.375 61.578125 C 328.433594 63.851562 330.4375 66.175781 332.386719 68.546875 C 334.332031 70.921875 336.21875 73.339844 338.046875 75.804688 C 339.875 78.269531 341.640625 80.777344 343.34375 83.328125 C 345.050781 85.878906 346.691406 88.472656 348.269531 91.105469 C 349.84375 93.738281 351.355469 96.40625 352.804688 99.113281 C 354.25 101.820312 355.628906 104.558594 356.941406 107.332031 C 358.253906 110.105469 359.496094 112.910156 360.667969 115.746094 C 361.84375 118.582031 362.949219 121.445312 363.980469 124.335938 C 365.015625 127.222656 365.976562 130.136719 366.867188 133.074219 C 367.757812 136.011719 368.578125 138.964844 369.320312 141.945312 C 370.066406 144.921875 370.738281 147.914062 371.339844 150.921875 C 371.9375 153.933594 372.460938 156.957031 372.910156 159.992188 C 373.363281 163.027344 373.738281 166.070312 374.039062 169.125 C 374.339844 172.179688 374.5625 175.238281 374.714844 178.304688 C 374.863281 181.371094 374.941406 184.4375 374.941406 187.503906 Z M 374.941406 187.503906 " fill-opacity="1" fill-rule="nonzero"/><path fill="#ffffff" d="M 154.238281 171.335938 C 153.890625 167.121094 147.039062 84.644531 144.753906 71.167969 L 144.71875 70.820312 C 144.570312 66.589844 146.734375 61.632812 150.023438 58.375 C 152.402344 56.027344 155.34375 54.578125 158.347656 54.609375 C 162.949219 54.652344 168.359375 58.246094 171.75 69.5625 C 171.785156 69.671875 171.808594 69.785156 171.828125 69.894531 C 171.828125 69.894531 184.851562 151.117188 184.859375 153.324219 C 184.867188 155.75 185.890625 158.203125 187.238281 159.691406 C 187.523438 160 187.820312 160.265625 188.125 160.457031 C 188.300781 160.566406 188.449219 160.6875 188.621094 160.664062 C 188.703125 160.648438 188.753906 160.566406 188.824219 160.484375 C 189.03125 160.257812 189.207031 159.957031 189.378906 159.582031 C 190.03125 158.160156 190.445312 155.988281 190.578125 152.902344 C 190.578125 152.878906 190.582031 152.855469 190.585938 152.832031 L 197.054688 61.019531 L 197.0625 60.945312 C 197.496094 56.5625 200.265625 52.496094 203.796875 50.210938 C 206.3125 48.578125 209.195312 47.859375 211.894531 48.351562 C 216.109375 49.121094 220.371094 52.921875 221.472656 62.335938 C 221.480469 62.441406 221.488281 62.550781 221.488281 62.652344 C 221.488281 62.652344 221.132812 142.582031 220.597656 155.191406 L 220.574219 155.441406 C 220.210938 158.042969 220.90625 160.992188 222.09375 163.023438 C 222.421875 163.582031 222.78125 164.066406 223.183594 164.417969 C 223.359375 164.574219 223.523438 164.71875 223.71875 164.746094 C 223.816406 164.761719 223.890625 164.660156 223.992188 164.574219 C 224.175781 164.421875 224.355469 164.21875 224.53125 163.976562 C 225.460938 162.71875 226.269531 160.632812 226.976562 157.523438 C 226.980469 157.503906 226.984375 157.484375 226.992188 157.460938 C 226.992188 157.460938 244.363281 88.640625 244.347656 88.699219 C 245.636719 83.042969 249.253906 78.550781 253.214844 76.378906 C 256.238281 74.722656 259.472656 74.386719 262.25 75.542969 C 266.335938 77.246094 269.980469 82.683594 269.269531 94.015625 C 269.265625 94.105469 269.253906 94.195312 269.238281 94.289062 C 269.238281 94.289062 262.597656 133.25 261.0625 143.304688 C 261.054688 143.347656 261.046875 143.386719 261.039062 143.429688 C 261.039062 143.429688 253.980469 178.105469 253.566406 183.503906 C 253.464844 184.839844 253.929688 186.328125 254.734375 187.378906 C 255.097656 187.855469 255.519531 188.269531 256.050781 188.367188 C 256.53125 188.457031 257.023438 188.195312 257.574219 187.722656 C 258.257812 187.136719 258.933594 186.261719 259.625 185.0625 C 265.070312 175.5625 285.527344 151.371094 289.59375 145.175781 C 291.8125 141.792969 295.734375 139.457031 299.371094 139.015625 C 302.191406 138.675781 304.835938 139.421875 306.699219 141.351562 C 309.253906 144.003906 310.574219 149.605469 306.820312 159.300781 C 306.789062 159.382812 306.75 159.464844 306.710938 159.542969 C 306.710938 159.542969 288.707031 194.824219 280.140625 210.253906 C 278.1875 213.773438 276.632812 216.3125 275.832031 217.382812 C 268.203125 230.289062 263.65625 257.085938 255.640625 279.640625 C 250.003906 295.496094 242.59375 309.25 231.734375 315.457031 C 212.230469 326.601562 171.011719 337.011719 146.117188 308.066406 C 146.082031 308.019531 146.042969 307.972656 146.007812 307.925781 C 146.007812 307.925781 112.527344 262.957031 107.808594 245.398438 C 106.855469 243.058594 95.199219 214.433594 92.683594 205.753906 C 92.679688 205.738281 92.675781 205.722656 92.671875 205.707031 C 92.671875 205.707031 87.03125 184.703125 69.65625 173.597656 C 66.824219 172.066406 65.324219 168.589844 65.882812 164.851562 C 66.933594 157.851562 75.929688 148.671875 96.289062 159.882812 C 96.304688 159.886719 96.3125 159.894531 96.328125 159.898438 C 96.328125 159.898438 109.964844 167.535156 125.941406 197.21875 C 125.941406 197.222656 125.941406 197.222656 125.941406 197.222656 C 125.941406 197.222656 128.058594 201.152344 131.714844 204.632812 C 134.011719 206.820312 136.925781 208.867188 140.355469 209.441406 C 140.566406 209.476562 140.777344 209.542969 140.976562 209.628906 C 140.976562 209.628906 140.992188 209.636719 141.023438 209.648438 C 141.421875 209.816406 143.449219 210.257812 145.699219 207.894531 C 149.480469 203.929688 153.214844 194.175781 154.238281 171.335938 Z M 166.6875 70.910156 C 165.40625 66.683594 163.898438 63.78125 162.230469 61.949219 C 160.949219 60.539062 159.625 59.859375 158.296875 59.847656 C 156.617188 59.832031 155.035156 60.789062 153.707031 62.101562 C 151.472656 64.3125 149.90625 67.613281 149.953125 70.492188 C 152.34375 85.015625 159.476562 171.070312 159.476562 171.070312 L 159.484375 171.402344 C 158.601562 191.3125 155.519531 202.015625 152.257812 207.71875 C 149.320312 212.851562 146.0625 214.4375 143.671875 214.894531 C 141.542969 215.304688 139.894531 214.832031 139.164062 214.550781 C 134.804688 213.730469 131.039062 211.222656 128.105469 208.425781 C 123.804688 204.335938 121.324219 199.703125 121.328125 199.703125 C 106.3125 171.804688 93.730469 164.449219 93.761719 164.472656 C 86.863281 160.671875 81.617188 159.507812 77.769531 159.988281 C 74.621094 160.378906 72.59375 161.9375 71.640625 163.828125 C 71.066406 164.964844 70.878906 166.195312 71.082031 167.257812 C 71.226562 168.007812 71.554688 168.691406 72.183594 169.011719 L 72.402344 169.136719 C 91.5 181.289062 97.730469 204.34375 97.71875 204.292969 C 100.304688 213.230469 112.722656 243.566406 112.722656 243.566406 L 112.832031 243.898438 C 117.136719 260.4375 148.597656 302.644531 150.144531 304.710938 C 173.125 331.339844 211.15625 321.183594 229.136719 310.90625 C 239.082031 305.222656 245.542969 292.40625 250.703125 277.886719 C 258.863281 254.933594 263.605469 227.6875 271.378906 214.621094 C 271.5 214.421875 271.644531 214.238281 271.8125 214.074219 C 272.296875 213.609375 273.625 211.199219 275.5625 207.710938 C 283.800781 192.867188 300.800781 159.601562 301.980469 157.289062 C 303.382812 153.644531 303.996094 150.769531 303.976562 148.546875 C 303.964844 146.910156 303.636719 145.726562 302.925781 144.988281 C 302.195312 144.230469 301.113281 144.082031 300.003906 144.21875 C 297.753906 144.492188 295.347656 145.960938 293.972656 148.046875 C 289.933594 154.207031 269.582031 178.230469 264.167969 187.667969 C 261.160156 192.90625 257.722656 194 255.105469 193.523438 C 253.363281 193.203125 251.773438 192.132812 250.570312 190.5625 C 249.027344 188.539062 248.144531 185.679688 248.34375 183.101562 C 248.753906 177.753906 255.566406 144.0625 255.890625 142.445312 C 257.394531 132.636719 263.605469 96.167969 264.046875 93.554688 C 264.304688 89.292969 263.917969 86.082031 263.03125 83.78125 C 262.351562 82.015625 261.414062 80.875 260.230469 80.378906 C 258.84375 79.800781 257.246094 80.144531 255.734375 80.972656 C 252.890625 82.53125 250.378906 85.8125 249.453125 89.867188 C 249.449219 89.886719 249.445312 89.90625 249.441406 89.925781 C 249.441406 89.925781 232.070312 158.746094 232.082031 158.683594 C 230.941406 163.699219 229.363281 166.636719 227.839844 168.148438 C 226.25 169.730469 224.558594 170.160156 222.972656 169.929688 C 221.417969 169.707031 219.851562 168.746094 218.554688 167.113281 C 216.304688 164.28125 214.804688 159.257812 215.367188 154.875 C 215.886719 142.335938 216.230469 66.835938 216.25 62.800781 C 215.53125 56.878906 213.625 53.992188 210.953125 53.503906 C 209.507812 53.242188 207.992188 53.734375 206.644531 54.609375 C 204.382812 56.074219 202.5625 58.636719 202.28125 61.441406 L 195.8125 153.175781 C 195.589844 158.054688 194.640625 161.160156 193.496094 162.960938 C 192.324219 164.804688 190.859375 165.625 189.40625 165.84375 C 187.828125 166.082031 186.117188 165.582031 184.558594 164.339844 C 181.925781 162.246094 179.640625 157.792969 179.621094 153.347656 C 179.609375 151.226562 167.363281 75.125 166.6875 70.910156 Z M 166.6875 70.910156 " fill-opacity="1" fill-rule="evenodd"/></svg>