<svg xmlns="http://www.w3.org/2000/svg" xmlns:xlink="http://www.w3.org/1999/xlink" width="500" zoomAndPan="magnify" viewBox="0 0 375 374.999991" height="500" preserveAspectRatio="xMidYMid meet" version="1.0"><path fill="#f083a2" d="M 373.746094 186.683594 C 373.746094 189.738281 373.667969 192.792969 373.519531 195.84375 C 373.371094 198.894531 373.144531 201.941406 372.84375 204.980469 C 372.546875 208.023438 372.171875 211.054688 371.722656 214.078125 C 371.273438 217.097656 370.753906 220.109375 370.15625 223.105469 C 369.558594 226.101562 368.890625 229.082031 368.148438 232.046875 C 367.40625 235.007812 366.589844 237.953125 365.703125 240.878906 C 364.816406 243.800781 363.859375 246.699219 362.828125 249.578125 C 361.800781 252.453125 360.699219 255.304688 359.53125 258.128906 C 358.363281 260.949219 357.125 263.742188 355.816406 266.503906 C 354.511719 269.265625 353.136719 271.996094 351.695312 274.6875 C 350.257812 277.382812 348.75 280.042969 347.179688 282.660156 C 345.609375 285.28125 343.972656 287.863281 342.277344 290.402344 C 340.578125 292.945312 338.820312 295.441406 337 297.894531 C 335.179688 300.347656 333.300781 302.757812 331.359375 305.121094 C 329.421875 307.480469 327.425781 309.792969 325.375 312.058594 C 323.320312 314.320312 321.214844 316.535156 319.054688 318.695312 C 316.894531 320.855469 314.679688 322.960938 312.417969 325.011719 C 310.152344 327.066406 307.839844 329.058594 305.476562 330.996094 C 303.113281 332.9375 300.707031 334.816406 298.253906 336.636719 C 295.796875 338.457031 293.300781 340.214844 290.757812 341.910156 C 288.21875 343.609375 285.636719 345.242188 283.015625 346.8125 C 280.394531 348.386719 277.738281 349.890625 275.042969 351.332031 C 272.347656 352.769531 269.617188 354.144531 266.855469 355.449219 C 264.09375 356.757812 261.300781 357.996094 258.476562 359.164062 C 255.652344 360.332031 252.804688 361.433594 249.925781 362.460938 C 247.050781 363.492188 244.148438 364.449219 241.222656 365.335938 C 238.300781 366.222656 235.355469 367.039062 232.390625 367.78125 C 229.425781 368.523438 226.445312 369.191406 223.449219 369.789062 C 220.453125 370.382812 217.441406 370.90625 214.417969 371.355469 C 211.394531 371.800781 208.363281 372.175781 205.324219 372.476562 C 202.28125 372.777344 199.234375 373 196.183594 373.148438 C 193.132812 373.300781 190.078125 373.375 187.019531 373.375 C 183.964844 373.375 180.910156 373.300781 177.859375 373.148438 C 174.808594 373 171.761719 372.777344 168.71875 372.476562 C 165.679688 372.175781 162.644531 371.800781 159.625 371.355469 C 156.601562 370.90625 153.589844 370.382812 150.59375 369.789062 C 147.597656 369.191406 144.617188 368.523438 141.652344 367.78125 C 138.6875 367.039062 135.742188 366.222656 132.820312 365.335938 C 129.894531 364.449219 126.992188 363.492188 124.117188 362.460938 C 121.238281 361.433594 118.386719 360.332031 115.566406 359.164062 C 112.742188 357.996094 109.949219 356.757812 107.1875 355.449219 C 104.425781 354.144531 101.695312 352.769531 99 351.332031 C 96.304688 349.890625 93.648438 348.386719 91.027344 346.8125 C 88.40625 345.242188 85.824219 343.609375 83.285156 341.910156 C 80.742188 340.214844 78.246094 338.457031 75.789062 336.636719 C 73.335938 334.816406 70.925781 332.9375 68.566406 330.996094 C 66.203125 329.058594 63.890625 327.066406 61.625 325.011719 C 59.363281 322.960938 57.148438 320.855469 54.988281 318.695312 C 52.828125 316.535156 50.71875 314.320312 48.667969 312.058594 C 46.617188 309.792969 44.621094 307.480469 42.683594 305.121094 C 40.742188 302.757812 38.863281 300.347656 37.042969 297.894531 C 35.222656 295.441406 33.464844 292.945312 31.765625 290.402344 C 30.070312 287.863281 28.433594 285.28125 26.863281 282.660156 C 25.292969 280.042969 23.785156 277.382812 22.347656 274.6875 C 20.90625 271.996094 19.53125 269.265625 18.226562 266.503906 C 16.917969 263.742188 15.679688 260.949219 14.511719 258.128906 C 13.34375 255.304688 12.242188 252.453125 11.214844 249.578125 C 10.183594 246.699219 9.226562 243.800781 8.339844 240.878906 C 7.449219 237.953125 6.636719 235.007812 5.894531 232.046875 C 5.152344 229.082031 4.480469 226.101562 3.886719 223.105469 C 3.289062 220.109375 2.765625 217.097656 2.320312 214.078125 C 1.871094 211.054688 1.496094 208.023438 1.195312 204.980469 C 0.898438 201.941406 0.671875 198.894531 0.523438 195.84375 C 0.371094 192.792969 0.296875 189.738281 0.296875 186.683594 C 0.296875 183.628906 0.371094 180.574219 0.523438 177.523438 C 0.671875 174.472656 0.898438 171.425781 1.195312 168.382812 C 1.496094 165.34375 1.871094 162.3125 2.320312 159.289062 C 2.765625 156.269531 3.289062 153.257812 3.886719 150.261719 C 4.480469 147.265625 5.152344 144.285156 5.894531 141.320312 C 6.636719 138.355469 7.449219 135.414062 8.339844 132.488281 C 9.226562 129.566406 10.183594 126.664062 11.214844 123.789062 C 12.242188 120.910156 13.34375 118.0625 14.511719 115.238281 C 15.679688 112.417969 16.917969 109.625 18.226562 106.863281 C 19.53125 104.101562 20.90625 101.371094 22.347656 98.675781 C 23.785156 95.984375 25.292969 93.324219 26.863281 90.703125 C 28.433594 88.082031 30.070312 85.503906 31.765625 82.964844 C 33.464844 80.421875 35.222656 77.925781 37.042969 75.472656 C 38.863281 73.015625 40.742188 70.609375 42.683594 68.246094 C 44.621094 65.886719 46.617188 63.574219 48.667969 61.308594 C 50.71875 59.046875 52.828125 56.832031 54.988281 54.671875 C 57.148438 52.511719 59.363281 50.40625 61.625 48.355469 C 63.890625 46.300781 66.203125 44.308594 68.566406 42.367188 C 70.925781 40.429688 73.335938 38.550781 75.789062 36.730469 C 78.246094 34.910156 80.742188 33.152344 83.285156 31.453125 C 85.824219 29.757812 88.40625 28.125 91.027344 26.550781 C 93.648438 24.980469 96.304688 23.476562 99 22.035156 C 101.695312 20.59375 104.425781 19.222656 107.1875 17.914062 C 109.949219 16.609375 112.742188 15.371094 115.566406 14.203125 C 118.386719 13.035156 121.238281 11.933594 124.117188 10.90625 C 126.992188 9.875 129.894531 8.917969 132.820312 8.03125 C 135.742188 7.144531 138.6875 6.328125 141.652344 5.585938 C 144.617188 4.84375 147.597656 4.175781 150.59375 3.578125 C 153.589844 2.984375 156.601562 2.460938 159.625 2.011719 C 162.644531 1.5625 165.679688 1.191406 168.71875 0.890625 C 171.761719 0.589844 174.808594 0.367188 177.859375 0.214844 C 180.910156 0.0664062 183.964844 -0.0078125 187.019531 -0.0078125 C 190.078125 -0.0078125 193.132812 0.0664062 196.183594 0.214844 C 199.234375 0.367188 202.28125 0.589844 205.324219 0.890625 C 208.363281 1.191406 211.394531 1.5625 214.417969 2.011719 C 217.441406 2.460938 220.453125 2.984375 223.449219 3.578125 C 226.445312 4.175781 229.425781 4.84375 232.390625 5.585938 C 235.355469 6.328125 238.300781 7.144531 241.222656 8.03125 C 244.148438 8.917969 247.050781 9.875 249.925781 10.90625 C 252.804688 11.933594 255.652344 13.035156 258.476562 14.203125 C 261.300781 15.371094 264.09375 16.609375 266.855469 17.914062 C 269.617188 19.222656 272.347656 20.59375 275.042969 22.035156 C 277.738281 23.476562 280.394531 24.980469 283.015625 26.550781 C 285.636719 28.125 288.21875 29.757812 290.757812 31.453125 C 293.300781 33.152344 295.796875 34.910156 298.253906 36.730469 C 300.707031 38.550781 303.113281 40.429688 305.476562 42.367188 C 307.839844 44.308594 310.152344 46.300781 312.417969 48.355469 C 314.679688 50.40625 316.894531 52.511719 319.054688 54.671875 C 321.214844 56.832031 323.320312 59.046875 325.375 61.308594 C 327.425781 63.574219 329.421875 65.886719 331.359375 68.246094 C 333.300781 70.609375 335.179688 73.015625 337 75.472656 C 338.820312 77.925781 340.578125 80.421875 342.277344 82.964844 C 343.972656 85.503906 345.609375 88.082031 347.179688 90.703125 C 348.75 93.324219 350.257812 95.984375 351.695312 98.675781 C 353.136719 101.371094 354.511719 104.101562 355.816406 106.863281 C 357.125 109.625 358.363281 112.417969 359.53125 115.238281 C 360.699219 118.0625 361.800781 120.910156 362.828125 123.789062 C 363.859375 126.664062 364.816406 129.566406 365.703125 132.488281 C 366.589844 135.414062 367.40625 138.355469 368.148438 141.320312 C 368.890625 144.285156 369.558594 147.265625 370.15625 150.261719 C 370.753906 153.257812 371.273438 156.269531 371.722656 159.289062 C 372.171875 162.3125 372.546875 165.34375 372.84375 168.382812 C 373.144531 171.425781 373.371094 174.472656 373.519531 177.523438 C 373.667969 180.574219 373.746094 183.628906 373.746094 186.683594 Z M 373.746094 186.683594 " fill-opacity="1" fill-rule="nonzero"/><path fill="#ffffff" d="M 196.8125 91.03125 C 196.847656 90.964844 196.882812 90.902344 196.917969 90.835938 C 200.597656 84.300781 209.214844 74.757812 220.953125 74.660156 C 228.367188 74.597656 237.230469 78.238281 246.863281 89.390625 C 249.464844 89.257812 251.765625 89.503906 253.773438 89.949219 C 258.34375 90.957031 262.160156 93.496094 263.398438 94.386719 C 263.839844 94.511719 264.300781 94.777344 264.761719 95.253906 C 264.882812 95.382812 265.082031 95.605469 265.273438 95.96875 C 265.390625 96.191406 265.726562 97.050781 266.1875 98.453125 C 270.359375 111.140625 290.210938 177.675781 290.210938 177.675781 L 290.332031 178.5 C 290.832031 230.425781 269.253906 272.714844 243.613281 298.34375 C 226.289062 315.664062 207.046875 325.363281 191.367188 325.6875 C 160.019531 333.042969 125.292969 313.171875 108.535156 293.488281 C 96.410156 279.242188 81.53125 234.839844 83.957031 206.175781 C 85.890625 183.351562 84.859375 162.652344 87.496094 150.464844 C 88.855469 144.195312 91.316406 139.96875 94.945312 138.058594 C 101.710938 134.492188 106.8125 133.722656 110.925781 135.035156 C 111.613281 135.253906 112.28125 135.535156 112.929688 135.875 C 112.828125 132.980469 112.914062 129.582031 113.480469 126.191406 C 114.542969 119.882812 117.285156 113.703125 122.984375 110.332031 C 127.578125 107.617188 135.210938 105.019531 142.625 105.433594 C 145.777344 105.609375 148.882812 106.3125 151.730469 107.730469 C 153.242188 91.109375 167.269531 85.550781 175.238281 84.722656 C 183.140625 83.898438 189.445312 85.253906 194.128906 88.667969 C 195.085938 89.367188 195.984375 90.152344 196.8125 91.03125 Z M 136.199219 200.386719 C 136.003906 199.46875 135.84375 198.800781 135.765625 198.496094 C 126.164062 175.484375 121.464844 158.359375 116.269531 148.5 C 114.113281 144.398438 112.03125 141.648438 109.113281 140.71875 C 106.160156 139.777344 102.589844 140.773438 97.726562 143.335938 C 96.289062 144.09375 95.335938 145.589844 94.554688 147.550781 C 93.546875 150.082031 92.910156 153.324219 92.460938 157.132812 C 91 169.441406 91.546875 187.285156 89.902344 206.679688 C 87.597656 233.894531 101.566406 276.09375 113.078125 289.621094 C 128.714844 307.988281 161.0625 326.847656 190.296875 319.8125 L 190.957031 319.730469 C 205.507812 319.550781 223.265625 310.25 239.394531 294.125 C 264.042969 269.484375 284.734375 228.847656 284.367188 178.976562 C 282.707031 173.398438 264.496094 112.398438 260.519531 100.320312 C 260.421875 100.019531 260.320312 99.722656 260.230469 99.464844 C 259.066406 98.628906 256.507812 96.664062 252.484375 95.773438 C 247.925781 94.765625 241.539062 95.199219 233.238281 99.914062 C 211.964844 112 185.488281 111.53125 173.300781 107.84375 C 172.683594 107.65625 172.167969 108.046875 171.703125 108.574219 C 170.710938 109.710938 170.054688 111.515625 169.761719 113.652344 C 168.09375 125.890625 178.835938 146.765625 223.003906 144.613281 C 223.769531 144.578125 224.523438 144.835938 225.101562 145.335938 C 225.101562 145.335938 243.511719 160.878906 231.445312 190.632812 C 231.082031 191.535156 230.300781 192.203125 229.355469 192.421875 C 229.355469 192.421875 181.792969 203.539062 166.402344 254.714844 C 165.925781 256.292969 164.261719 257.183594 162.683594 256.714844 C 161.109375 256.238281 160.210938 254.574219 160.6875 252.996094 C 175.410156 204.046875 217.792969 189.515625 226.449219 187.027344 C 234.308594 166.132812 224.835938 153.742188 221.96875 150.632812 C 215.859375 150.871094 210.339844 150.6875 205.367188 150.148438 L 211.386719 179.617188 C 212.089844 181.828125 211.882812 184.421875 210.785156 187.113281 C 209.382812 190.53125 206.5 194.183594 202.828125 197.140625 C 197.234375 201.640625 189.867188 204.425781 183.488281 202.917969 C 182.238281 202.625 181.019531 202.175781 179.847656 201.546875 C 179.308594 205.160156 177.3125 208.792969 174.277344 211.820312 C 168.371094 217.710938 158.71875 221.1875 150.234375 217.832031 C 147.875 216.902344 145.574219 215.441406 143.46875 213.328125 C 143.421875 214.445312 143.320312 215.53125 143.140625 216.554688 C 142.363281 221.042969 140.167969 224.34375 136.445312 225.316406 C 134.457031 225.835938 131.890625 225.703125 128.632812 224.375 C 124.707031 222.769531 119.480469 219.28125 112.644531 213.046875 C 112.425781 212.847656 112.238281 212.617188 112.085938 212.363281 C 112.085938 212.363281 99.074219 190.339844 93.78125 179.40625 C 93.0625 177.925781 93.683594 176.140625 95.167969 175.421875 C 96.644531 174.703125 98.433594 175.328125 99.152344 176.804688 C 103.964844 186.746094 115.242188 205.964844 116.996094 208.9375 C 121.980469 213.457031 125.976562 216.378906 129.179688 218.050781 C 131.710938 219.371094 133.546875 219.90625 134.933594 219.542969 C 135.785156 219.320312 136.269531 218.621094 136.632812 217.78125 C 137.253906 216.34375 137.480469 214.519531 137.539062 212.59375 C 137.664062 208.285156 136.851562 203.519531 136.269531 200.730469 C 136.242188 200.617188 136.214844 200.5 136.199219 200.386719 Z M 171.84375 191.195312 C 166.371094 171.328125 153.960938 122.203125 152.195312 115.195312 C 148.574219 111.929688 143.828125 111.101562 139.273438 111.417969 C 134.148438 111.773438 129.207031 113.585938 126.027344 115.46875 C 121.875 117.925781 120.140625 122.582031 119.367188 127.179688 C 118.21875 134.027344 119.304688 140.933594 119.546875 142.308594 C 120.230469 143.34375 120.898438 144.476562 121.550781 145.71875 C 126.8125 155.707031 131.605469 173.0625 141.359375 196.40625 C 141.410156 196.535156 141.460938 196.667969 141.492188 196.804688 C 141.492188 196.804688 141.714844 197.671875 142.011719 199.09375 C 144.441406 206.472656 148.171875 210.601562 152.429688 212.285156 C 158.675781 214.753906 165.714844 211.933594 170.0625 207.597656 C 172.890625 204.777344 174.703125 201.277344 173.824219 198.058594 C 173.492188 197.011719 173.03125 195.4375 172.46875 193.445312 C 172.34375 193.1875 172.21875 192.925781 172.101562 192.65625 C 171.882812 192.183594 171.804688 191.679688 171.84375 191.195312 Z M 196.929688 104.074219 C 195.765625 99.269531 193.699219 95.738281 190.613281 93.488281 C 186.96875 90.832031 182.011719 90.015625 175.855469 90.65625 C 169.085938 91.359375 156.75 96.503906 157.613281 112.441406 C 157.675781 112.589844 157.730469 112.742188 157.769531 112.902344 C 157.769531 112.902344 172.515625 171.476562 178.046875 191.25 C 179.359375 193.746094 180.980469 195.417969 182.835938 196.371094 C 187.941406 198.992188 194.328125 196.324219 199.089844 192.492188 C 201.90625 190.226562 204.183594 187.480469 205.257812 184.855469 C 205.773438 183.597656 206.042969 182.398438 205.679688 181.378906 C 205.636719 181.253906 205.601562 181.125 205.574219 180.992188 L 199.089844 149.238281 C 169.207031 143.722656 162.296875 124.238281 163.851562 112.847656 C 164.433594 108.566406 166.230469 105.238281 168.414062 103.488281 C 170.359375 101.929688 172.644531 101.410156 175.03125 102.132812 C 180.160156 103.683594 188.027344 104.597656 196.929688 104.074219 Z M 239.886719 90.589844 C 232.144531 82.585938 225.265625 80.070312 219.363281 80.722656 C 212.824219 81.445312 207.742188 85.972656 204.5 90.1875 C 202.972656 92.171875 201.851562 94.101562 201.199219 95.597656 C 200.988281 96.078125 200.804688 96.648438 200.734375 96.890625 C 201.652344 98.851562 202.382812 101.054688 202.925781 103.515625 C 211.941406 102.355469 221.589844 99.671875 230.289062 94.726562 C 233.757812 92.757812 236.953125 91.433594 239.886719 90.589844 Z M 265.363281 98.429688 C 265.375 98.398438 265.382812 98.371094 265.398438 98.339844 C 265.40625 98.3125 265.417969 98.28125 265.429688 98.25 Z M 261.414062 94.574219 C 261.015625 94.71875 260.675781 94.9375 260.402344 95.242188 C 260.125 95.542969 259.910156 95.925781 259.757812 96.390625 C 260.109375 95.316406 260.808594 94.832031 261.414062 94.574219 Z M 261.414062 94.574219 " fill-opacity="1" fill-rule="evenodd"/></svg>