<svg xmlns="http://www.w3.org/2000/svg" xmlns:xlink="http://www.w3.org/1999/xlink" width="500" zoomAndPan="magnify" viewBox="0 0 375 374.999991" height="500" preserveAspectRatio="xMidYMid meet" version="1.0"><defs><clipPath id="6dbfc047f2"><path d="M 0 0 L 374.660156 0 L 374.660156 375 L 0 375 Z M 0 0 " clip-rule="nonzero"/></clipPath></defs><g clip-path="url(#6dbfc047f2)"><path fill="#7facff" d="M 374.359375 187.285156 C 374.359375 190.351562 374.285156 193.414062 374.136719 196.472656 C 373.984375 199.535156 373.757812 202.589844 373.460938 205.636719 C 373.160156 208.6875 372.785156 211.726562 372.335938 214.757812 C 371.882812 217.789062 371.359375 220.808594 370.761719 223.8125 C 370.164062 226.820312 369.492188 229.808594 368.75 232.78125 C 368.003906 235.753906 367.1875 238.707031 366.296875 241.636719 C 365.40625 244.570312 364.445312 247.480469 363.414062 250.363281 C 362.382812 253.25 361.277344 256.109375 360.105469 258.9375 C 358.933594 261.769531 357.691406 264.570312 356.382812 267.339844 C 355.070312 270.109375 353.695312 272.847656 352.25 275.550781 C 350.804688 278.253906 349.292969 280.917969 347.71875 283.546875 C 346.144531 286.175781 344.503906 288.761719 342.800781 291.308594 C 341.097656 293.859375 339.335938 296.363281 337.507812 298.824219 C 335.683594 301.285156 333.796875 303.699219 331.855469 306.070312 C 329.910156 308.4375 327.910156 310.757812 325.851562 313.027344 C 323.792969 315.296875 321.679688 317.515625 319.511719 319.683594 C 317.34375 321.851562 315.125 323.964844 312.855469 326.019531 C 310.585938 328.078125 308.265625 330.078125 305.894531 332.023438 C 303.527344 333.96875 301.113281 335.851562 298.648438 337.679688 C 296.1875 339.503906 293.683594 341.265625 291.136719 342.96875 C 288.585938 344.671875 286 346.3125 283.371094 347.886719 C 280.742188 349.460938 278.074219 350.972656 275.371094 352.417969 C 272.667969 353.859375 269.933594 355.238281 267.164062 356.546875 C 264.390625 357.859375 261.589844 359.101562 258.761719 360.273438 C 255.929688 361.445312 253.070312 362.546875 250.183594 363.582031 C 247.300781 364.613281 244.390625 365.574219 241.457031 366.464844 C 238.523438 367.351562 235.570312 368.167969 232.597656 368.914062 C 229.625 369.660156 226.636719 370.328125 223.628906 370.925781 C 220.625 371.527344 217.605469 372.050781 214.574219 372.5 C 211.542969 372.949219 208.503906 373.324219 205.453125 373.625 C 202.402344 373.925781 199.347656 374.148438 196.285156 374.300781 C 193.226562 374.449219 190.160156 374.527344 187.097656 374.527344 C 184.03125 374.527344 180.96875 374.449219 177.910156 374.300781 C 174.847656 374.148438 171.792969 373.925781 168.742188 373.625 C 165.691406 373.324219 162.652344 372.949219 159.621094 372.5 C 156.589844 372.050781 153.570312 371.527344 150.5625 370.925781 C 147.558594 370.328125 144.570312 369.660156 141.597656 368.914062 C 138.621094 368.167969 135.671875 367.351562 132.738281 366.460938 C 129.804688 365.574219 126.894531 364.613281 124.011719 363.582031 C 121.125 362.546875 118.265625 361.445312 115.433594 360.273438 C 112.601562 359.101562 109.800781 357.859375 107.03125 356.546875 C 104.261719 355.238281 101.523438 353.859375 98.820312 352.417969 C 96.117188 350.972656 93.453125 349.460938 90.824219 347.886719 C 88.195312 346.3125 85.605469 344.671875 83.058594 342.96875 C 80.511719 341.265625 78.003906 339.503906 75.542969 337.679688 C 73.082031 335.851562 70.667969 333.96875 68.296875 332.023438 C 65.929688 330.078125 63.609375 328.078125 61.339844 326.019531 C 59.066406 323.964844 56.847656 321.851562 54.679688 319.683594 C 52.515625 317.515625 50.402344 315.296875 48.34375 313.027344 C 46.285156 310.757812 44.285156 308.4375 42.339844 306.070312 C 40.394531 303.699219 38.511719 301.285156 36.683594 298.824219 C 34.859375 296.363281 33.09375 293.859375 31.394531 291.308594 C 29.691406 288.761719 28.050781 286.175781 26.476562 283.546875 C 24.898438 280.917969 23.390625 278.253906 21.945312 275.550781 C 20.5 272.847656 19.121094 270.109375 17.8125 267.339844 C 16.503906 264.570312 15.261719 261.769531 14.085938 258.9375 C 12.914062 256.109375 11.8125 253.25 10.78125 250.363281 C 9.746094 247.480469 8.785156 244.570312 7.898438 241.636719 C 7.007812 238.707031 6.191406 235.753906 5.445312 232.78125 C 4.699219 229.808594 4.03125 226.820312 3.429688 223.8125 C 2.832031 220.808594 2.308594 217.789062 1.859375 214.757812 C 1.410156 211.726562 1.035156 208.6875 0.734375 205.636719 C 0.433594 202.589844 0.210938 199.535156 0.0585938 196.472656 C -0.0898438 193.414062 -0.167969 190.351562 -0.167969 187.285156 C -0.167969 184.222656 -0.0898438 181.160156 0.0585938 178.097656 C 0.210938 175.039062 0.433594 171.980469 0.734375 168.933594 C 1.035156 165.882812 1.410156 162.84375 1.859375 159.8125 C 2.308594 156.78125 2.832031 153.761719 3.429688 150.757812 C 4.03125 147.75 4.699219 144.761719 5.445312 141.789062 C 6.191406 138.816406 7.007812 135.863281 7.898438 132.933594 C 8.785156 130 9.746094 127.089844 10.78125 124.207031 C 11.8125 121.320312 12.914062 118.460938 14.085938 115.632812 C 15.261719 112.800781 16.503906 110 17.8125 107.230469 C 19.121094 104.460938 20.5 101.722656 21.945312 99.019531 C 23.390625 96.320312 24.898438 93.652344 26.476562 91.023438 C 28.050781 88.394531 29.691406 85.808594 31.394531 83.261719 C 33.09375 80.710938 34.859375 78.207031 36.683594 75.746094 C 38.511719 73.285156 40.394531 70.871094 42.339844 68.5 C 44.285156 66.132812 46.285156 63.8125 48.34375 61.542969 C 50.402344 59.273438 52.515625 57.054688 54.679688 54.886719 C 56.847656 52.71875 59.066406 50.609375 61.339844 48.550781 C 63.609375 46.492188 65.929688 44.492188 68.296875 42.546875 C 70.667969 40.601562 73.082031 38.71875 75.542969 36.894531 C 78.003906 35.066406 80.511719 33.304688 83.058594 31.601562 C 85.605469 29.898438 88.195312 28.257812 90.824219 26.683594 C 93.453125 25.109375 96.117188 23.597656 98.820312 22.15625 C 101.523438 20.710938 104.261719 19.332031 107.03125 18.023438 C 109.800781 16.710938 112.601562 15.472656 115.433594 14.296875 C 118.265625 13.125 121.125 12.023438 124.011719 10.992188 C 126.894531 9.957031 129.804688 8.996094 132.738281 8.109375 C 135.671875 7.21875 138.621094 6.402344 141.597656 5.65625 C 144.570312 4.914062 147.558594 4.242188 150.5625 3.644531 C 153.570312 3.046875 156.589844 2.523438 159.621094 2.070312 C 162.652344 1.621094 165.691406 1.246094 168.742188 0.945312 C 171.792969 0.648438 174.847656 0.421875 177.910156 0.269531 C 180.96875 0.121094 184.03125 0.046875 187.097656 0.046875 C 190.160156 0.046875 193.226562 0.121094 196.285156 0.269531 C 199.347656 0.421875 202.402344 0.648438 205.453125 0.945312 C 208.503906 1.246094 211.542969 1.621094 214.574219 2.070312 C 217.605469 2.523438 220.625 3.046875 223.628906 3.644531 C 226.636719 4.242188 229.625 4.914062 232.597656 5.65625 C 235.570312 6.402344 238.523438 7.21875 241.457031 8.109375 C 244.390625 8.996094 247.300781 9.957031 250.183594 10.992188 C 253.070312 12.023438 255.929688 13.125 258.761719 14.296875 C 261.589844 15.472656 264.390625 16.710938 267.164062 18.023438 C 269.933594 19.332031 272.667969 20.710938 275.371094 22.15625 C 278.074219 23.597656 280.742188 25.109375 283.371094 26.683594 C 286 28.257812 288.585938 29.898438 291.136719 31.601562 C 293.683594 33.304688 296.1875 35.066406 298.648438 36.894531 C 301.113281 38.71875 303.527344 40.601562 305.894531 42.546875 C 308.265625 44.492188 310.585938 46.492188 312.855469 48.550781 C 315.125 50.609375 317.34375 52.71875 319.511719 54.886719 C 321.679688 57.054688 323.792969 59.273438 325.851562 61.542969 C 327.910156 63.8125 329.910156 66.132812 331.855469 68.5 C 333.796875 70.871094 335.683594 73.285156 337.507812 75.746094 C 339.335938 78.207031 341.097656 80.710938 342.800781 83.261719 C 344.503906 85.808594 346.144531 88.394531 347.71875 91.023438 C 349.292969 93.652344 350.804688 96.320312 352.25 99.019531 C 353.695312 101.722656 355.070312 104.460938 356.382812 107.230469 C 357.691406 110 358.933594 112.800781 360.105469 115.632812 C 361.277344 118.460938 362.382812 121.320312 363.414062 124.207031 C 364.445312 127.089844 365.40625 130 366.296875 132.933594 C 367.1875 135.863281 368.003906 138.816406 368.75 141.789062 C 369.492188 144.761719 370.164062 147.75 370.761719 150.757812 C 371.359375 153.761719 371.882812 156.78125 372.335938 159.8125 C 372.785156 162.84375 373.160156 165.882812 373.460938 168.933594 C 373.757812 171.980469 373.984375 175.039062 374.136719 178.097656 C 374.285156 181.160156 374.359375 184.222656 374.359375 187.285156 Z M 374.359375 187.285156 " fill-opacity="1" fill-rule="nonzero"/></g><path fill="#ffffff" d="M 122.316406 197.535156 C 114.953125 216.5 116.320312 238.582031 120.546875 258.261719 C 126.949219 288.082031 139.988281 312.429688 139.988281 312.429688 C 140.527344 313.4375 140.144531 314.699219 139.136719 315.238281 C 138.128906 315.777344 136.871094 315.394531 136.332031 314.386719 C 136.332031 314.386719 123.027344 289.550781 116.496094 259.132812 C 112.101562 238.664062 110.800781 215.695312 118.476562 195.972656 C 118.488281 195.941406 118.503906 195.910156 118.515625 195.875 C 118.515625 195.875 121.339844 189.5625 128.023438 187.578125 C 130.839844 186.742188 134.351562 186.644531 138.636719 188.195312 C 138.945312 188.304688 139.222656 188.488281 139.449219 188.730469 C 139.660156 188.957031 140.46875 190.261719 141.609375 192.40625 C 145.617188 199.949219 154.925781 218.921875 159.769531 232.753906 C 161.664062 238.175781 162.863281 242.847656 162.910156 245.84375 C 162.9375 247.660156 162.523438 249.011719 161.871094 249.863281 C 161.804688 249.945312 161.734375 250.023438 161.660156 250.09375 C 161.074219 250.851562 159.765625 252.21875 157.5625 252.746094 C 155.972656 253.128906 153.859375 253.097656 151.164062 251.84375 C 145.6875 249.300781 137.066406 241.039062 124.628906 218.351562 C 124.078125 217.351562 124.445312 216.089844 125.449219 215.539062 C 126.453125 214.992188 127.714844 215.359375 128.261719 216.363281 C 139.957031 237.691406 147.761719 245.695312 152.910156 248.085938 C 154.46875 248.8125 155.675781 248.9375 156.597656 248.71875 C 157.738281 248.441406 158.332031 247.648438 158.496094 247.410156 C 158.546875 247.332031 158.601562 247.261719 158.65625 247.195312 C 158.699219 247.070312 158.707031 246.914062 158.730469 246.746094 C 158.796875 246.199219 158.773438 245.539062 158.691406 244.785156 C 158.398438 242.085938 157.339844 238.359375 155.855469 234.125 C 151.082031 220.488281 141.898438 201.789062 137.949219 194.347656 C 137.402344 193.324219 136.867188 192.386719 136.566406 191.867188 C 133.625 190.921875 131.1875 190.960938 129.203125 191.550781 C 124.613281 192.914062 122.527344 197.09375 122.316406 197.535156 Z M 122.316406 197.535156 " fill-opacity="1" fill-rule="evenodd"/><path fill="#ffffff" d="M 165.640625 174.375 C 159.132812 171.964844 154.257812 172.246094 150.605469 173.996094 C 147.132812 175.65625 144.820312 178.601562 143.261719 181.5 C 140.828125 186.027344 140.214844 190.511719 140.214844 190.511719 C 140.058594 191.644531 139.015625 192.441406 137.882812 192.289062 C 136.75 192.132812 135.953125 191.089844 136.105469 189.957031 C 136.105469 189.957031 136.796875 184.769531 139.613281 179.539062 C 141.554688 175.929688 144.492188 172.332031 148.8125 170.257812 C 153.382812 168.066406 159.550781 167.523438 167.832031 170.777344 C 168.261719 170.945312 168.621094 171.25 168.855469 171.644531 C 168.855469 171.644531 173.199219 178.949219 175.808594 188.507812 C 176.109375 189.613281 175.460938 190.753906 174.355469 191.054688 C 173.253906 191.355469 172.113281 190.703125 171.8125 189.601562 C 169.792969 182.203125 166.675781 176.246094 165.640625 174.375 Z M 165.640625 174.375 " fill-opacity="1" fill-rule="evenodd"/><path fill="#ffffff" d="M 158.058594 241.347656 C 157.789062 240.234375 158.476562 239.117188 159.589844 238.847656 C 160.699219 238.582031 161.820312 239.269531 162.089844 240.378906 C 162.089844 240.378906 163.898438 247.972656 168.359375 253.121094 C 171.035156 256.210938 174.742188 258.390625 179.742188 256.863281 C 180.644531 256.589844 181.304688 255.886719 181.839844 254.949219 C 182.558594 253.699219 183.023438 252.058594 183.320312 250.171875 C 184.855469 240.417969 181.738281 224.542969 177.894531 216.734375 C 177.390625 215.710938 177.8125 214.464844 178.839844 213.960938 C 179.863281 213.457031 181.109375 213.878906 181.613281 214.90625 C 185.742188 223.289062 189.066406 240.339844 187.414062 250.816406 C 186.578125 256.117188 184.339844 259.792969 180.953125 260.828125 C 174.070312 262.933594 168.910156 260.085938 165.226562 255.835938 C 160.152344 249.972656 158.058594 241.351562 158.058594 241.347656 Z M 158.058594 241.347656 Z M 158.058594 241.347656 " fill-opacity="1" fill-rule="evenodd"/><path fill="#ffffff" d="M 181.132812 51.027344 C 178.195312 43.9375 174.78125 41.382812 171.371094 41.765625 C 168.847656 42.046875 166.5625 43.855469 164.878906 46.070312 C 163.15625 48.339844 162.039062 51.078125 162.144531 53.355469 C 162.144531 53.363281 162.144531 53.375 162.144531 53.386719 L 165.699219 170.488281 C 165.734375 171.632812 164.835938 172.585938 163.691406 172.621094 C 162.546875 172.65625 161.589844 171.757812 161.558594 170.613281 C 161.558594 170.613281 158 53.511719 158.003906 53.542969 C 157.859375 50.445312 159.230469 46.65625 161.578125 43.566406 C 163.964844 40.421875 167.332031 38.046875 170.910156 37.644531 C 175.59375 37.121094 181.042969 39.824219 185.054688 49.671875 C 185.113281 49.8125 185.152344 49.957031 185.179688 50.105469 C 185.179688 50.105469 192.925781 95.496094 191.101562 130.320312 C 191.183594 131.976562 192.152344 152.757812 191.699219 161.429688 C 191.617188 163.390625 191.820312 165.074219 192.269531 166.359375 C 192.5625 167.195312 192.878906 167.855469 193.398438 168.101562 C 193.695312 168.238281 193.988281 168.011719 194.34375 167.726562 C 195.257812 166.992188 196.160156 165.648438 197.0625 163.648438 C 197.707031 160.828125 204.839844 129.597656 207.953125 119.199219 C 208.457031 116.644531 218.839844 64.050781 219.085938 63.269531 C 221.289062 56.238281 229.535156 51.898438 236.371094 54.414062 C 240.757812 56.027344 244.761719 60.46875 245.847656 69.222656 C 245.867188 69.398438 245.867188 69.574219 245.84375 69.746094 C 245.84375 69.746094 235.679688 147.003906 229.5625 182.664062 C 229.707031 190.214844 234.054688 195.734375 239.328125 200.746094 C 245.128906 206.253906 252.0625 211.160156 256.742188 217.015625 C 256.769531 217.050781 256.792969 217.082031 256.820312 217.117188 C 256.820312 217.117188 264.007812 227.375 260.042969 238.339844 C 260.023438 238.386719 260.003906 238.433594 259.984375 238.484375 C 259.984375 238.484375 247.402344 266.5625 238.191406 298.292969 C 235.9375 305.800781 235.554688 312.679688 226.859375 322.183594 C 223.804688 325.523438 213.605469 331.453125 200.445312 334.683594 C 180.847656 339.496094 154.773438 338.441406 136.515625 314.671875 C 135.820312 313.765625 135.992188 312.464844 136.898438 311.765625 C 137.804688 311.070312 139.105469 311.238281 139.804688 312.148438 C 156.824219 334.3125 181.1875 335.144531 199.457031 330.65625 C 211.539062 327.691406 221 322.449219 223.804688 319.386719 C 231.894531 310.542969 232.125 304.085938 234.21875 297.117188 C 243.210938 266.132812 255.402344 238.582031 256.164062 236.871094 C 259.238281 228.273438 253.925781 220.226562 253.464844 219.550781 C 248.890625 213.855469 242.117188 209.109375 236.472656 203.75 C 230.328125 197.910156 225.507812 191.359375 225.417969 182.527344 L 225.445312 182.15625 C 231.34375 147.84375 241.042969 74.453125 241.699219 69.472656 C 240.839844 63.019531 238.210938 59.507812 234.9375 58.304688 C 230.214844 56.5625 224.5625 59.648438 223.042969 64.507812 C 222.792969 65.300781 212 120.097656 212 120.097656 L 211.953125 120.292969 C 208.730469 131.011719 201.054688 164.769531 201.054688 164.769531 L 200.929688 165.152344 C 199.347656 168.726562 197.554688 170.726562 195.988281 171.605469 C 194.4375 172.46875 192.957031 172.464844 191.652344 171.859375 C 190.546875 171.34375 189.519531 170.316406 188.78125 168.761719 C 187.929688 166.976562 187.425781 164.382812 187.558594 161.230469 C 188.027344 152.296875 186.957031 130.417969 186.957031 130.417969 L 186.960938 130.207031 C 188.707031 97.183594 181.710938 54.480469 181.132812 51.027344 Z M 181.132812 51.027344 " fill-opacity="1" fill-rule="evenodd"/><path fill="#ffffff" d="M 188.570312 183.308594 C 201.679688 169.933594 210.578125 172.226562 210.578125 172.226562 C 210.734375 172.261719 210.886719 172.316406 211.027344 172.386719 C 222.042969 177.738281 232.160156 192.242188 232.160156 192.242188 C 232.8125 193.183594 232.582031 194.472656 231.640625 195.125 C 230.699219 195.777344 229.410156 195.546875 228.757812 194.605469 C 228.757812 194.605469 219.601562 181.316406 209.492188 176.25 C 208.308594 176.140625 201.410156 176.015625 191.285156 186.460938 C 191.117188 186.632812 190.921875 186.777344 190.707031 186.882812 C 190.707031 186.882812 173.421875 195.300781 160.226562 196.292969 C 160.09375 196.300781 159.960938 196.296875 159.828125 196.28125 C 159.78125 196.296875 159.242188 196.472656 158.929688 196.671875 C 158.023438 197.242188 157.09375 198.25 156.644531 199.515625 C 156.082031 201.082031 156.382812 203.011719 158.265625 205.003906 C 160.691406 207.566406 165.335938 210.082031 173.351562 212.257812 C 175.085938 212.511719 193.9375 215.121094 202.328125 211.941406 C 202.910156 211.71875 203.558594 211.773438 204.097656 212.082031 C 204.636719 212.394531 205.007812 212.929688 205.109375 213.542969 C 205.109375 213.542969 208.058594 230.875 227.902344 240.183594 C 228.933594 240.667969 229.378906 241.902344 228.898438 242.9375 C 228.410156 243.972656 227.175781 244.421875 226.140625 243.933594 C 208.710938 235.757812 203.136719 221.914062 201.570312 216.488281 C 191.335938 218.960938 172.632812 216.34375 172.632812 216.34375 L 172.386719 216.292969 C 149.6875 210.15625 150.660156 200.210938 154.09375 195.613281 C 155.101562 194.265625 156.382812 193.261719 157.550781 192.703125 C 158.46875 192.269531 159.351562 192.101562 160.078125 192.144531 C 171.582031 191.226562 186.257812 184.414062 188.570312 183.308594 Z M 188.570312 183.308594 " fill-opacity="1" fill-rule="evenodd"/></svg>